<svg height='100px' width='100px'  fill="#FFFFFF" xmlns="http://www.w3.org/2000/svg" xmlns:xlink="http://www.w3.org/1999/xlink" version="1.1" x="0px" y="0px" viewBox="0 0 66 66" enable-background="new 0 0 66 66" xml:space="preserve"><g><path d="M53.645,45.453c0.573-2.903-0.7-6.078-3.139-7.76c-2.07-1.428-4.587-2.148-17.798-2.476l0.066-5.427   c3.396,0.444,9.139,1.773,13.208-1.143c1.881-1.351,3.288-3.615,3.962-6.378c0.596-2.438,0.604-4.955,0.611-7.389   c0.002-0.823-0.015-1.644-0.067-2.449c0.04-0.03,0.08-0.062,0.096-0.113c0.038-0.115-0.023-0.226-0.124-0.283   c-0.569-6.98-3.975-8.314-9.326-8.502L28.228,3.083c-9.323-0.323-13.454,1.95-14.192,14.189c-0.124,2.068-0.253,4.206,0.155,6.313   c0.838,4.313,3.686,7,8.121,7c3.912,0,4.323-1.437,9.463-0.913l-0.067,5.526c-12.319-0.242-15.194,0.194-17.511,1.725   c-2.696,1.782-3.925,5.522-2.842,8.563c-3.651,0.326-6.963,3.265-7.599,6.184c-0.629,2.883,3.387,11.271,9.521,11.271   c0.048,0,0.097-0.001,0.146-0.002c1.934-0.044,3.874-0.962,5.324-2.518c2.594-2.783,3.105-7.2,1.216-10.502   c-1.542-2.699-4.54-4.39-7.611-4.47c0.004-0.067-0.005-0.136-0.03-0.203c-0.994-2.643,0.071-5.933,2.427-7.49   c2.037-1.345,4.642-1.801,16.948-1.559l-0.113,9.363c-3.076,0.498-6.344,3.102-6.998,6.109c-0.548,2.512,2.336,8.425,6.147,10.405   c0.008,0.012,0.005,0.027,0.015,0.037c0.049,0.049,0.112,0.073,0.177,0.073c0.01,0,0.017-0.01,0.027-0.011   c7.153,3.458,13.727-5.465,9.841-12.254c-1.622-2.839-4.854-4.56-8.09-4.466c0.02-0.15-0.011-0.299-0.112-0.408l0.106-8.83   c12.926,0.32,15.365,1.003,17.242,2.298c2.15,1.484,3.266,4.304,2.713,6.856c-0.008,0.037-0.002,0.073-0.002,0.109   c-3.736,0.296-7.052,3.296-7.683,6.191c-0.552,2.527,1.864,6.334,3.219,7.994c3.258,3.992,8.364,4.418,11.771,0.758   c2.595-2.782,3.107-7.199,1.218-10.502C59.645,47.247,56.687,45.562,53.645,45.453z M46.534,26.819l-2.024-2.023l1.578-1.578   l1.38,1.38c0.097,0.097,0.255,0.098,0.354,0c0.098-0.098,0.098-0.256,0-0.354l-1.38-1.38l0.411-0.411   c0.098-0.098,0.098-0.256,0-0.354c-0.098-0.098-0.256-0.098-0.353,0l-0.411,0.411l-1.005-1.005l1.864-1.864l1.565,1.565   c0.047,0.047,0.108,0.069,0.17,0.07l-1.59,1.59c-0.098,0.098-0.098,0.256,0,0.354c0.097,0.097,0.255,0.098,0.353,0l1.604-1.604   c-0.03,0.138-0.044,0.279-0.078,0.417C48.502,23.955,47.654,25.605,46.534,26.819z M49.543,13.957   c-0.031,0.012-0.065,0.012-0.09,0.037L49.2,14.248l-0.576-0.576l0.877-0.877C49.521,13.179,49.537,13.566,49.543,13.957z    M49.241,14.995c0.049,0.049,0.112,0.073,0.177,0.073c0.049,0,0.093-0.028,0.136-0.056c-0.003,0.932-0.016,1.874-0.056,2.817   c-0.011-0.04-0.016-0.082-0.047-0.113l-1.432-1.432c-0.029-0.029-0.068-0.031-0.104-0.043l1.286-1.286L49.241,14.995z    M20.289,29.344l0.011-0.011l0.02,0.02C20.31,29.35,20.299,29.347,20.289,29.344z M20.679,29.434   c0.169-0.103,0.155-0.274,0.053-0.376l-0.078-0.078l1.22-1.22l1.077,1.077l-0.395,0.395c-0.096,0.096-0.095,0.248-0.003,0.346   C21.882,29.594,21.261,29.543,20.679,29.434z M23.324,29.209c0.097,0.097,0.255,0.098,0.354,0c0.098-0.098,0.098-0.256,0-0.354   l-0.019-0.019l0.898-0.898l0.977,0.977c0.085,0.085,0.219,0.108,0.337,0.007l-0.205,0.205c-0.981,0.232-1.887,0.375-2.722,0.424   l0.361-0.361L23.324,29.209z M25.987,26.508l1.149,1.148l-1.242,1.242c0.084-0.098,0.086-0.244-0.007-0.337l-0.977-0.977   L25.987,26.508z M26.583,28.917l0.907-0.908l0.468,0.467c0.097,0.097,0.255,0.098,0.354,0c0.098-0.098,0.098-0.256,0-0.354   l-0.468-0.467l2.659-2.66c0.098-0.098,0.098-0.256,0-0.354c-0.098-0.098-0.256-0.098-0.354,0l-2.659,2.66l-1.149-1.148l0.371-0.371   c0.098-0.098,0.098-0.256,0-0.354c-0.098-0.098-0.256-0.098-0.354,0l-0.4,0.4c-0.088-0.031-0.185-0.03-0.255,0.041   c-0.07,0.07-0.072,0.167-0.041,0.255l-1.106,1.106l-0.502-0.502c-0.098-0.098-0.256-0.098-0.354,0   c-0.098,0.098-0.098,0.256,0,0.354l0.502,0.502l-0.898,0.899l-1.077-1.077l1.071-1.071c0.098-0.098,0.098-0.256,0-0.354   c-0.098-0.098-0.256-0.098-0.353,0l-1.071,1.071l-0.038-0.038c-0.098-0.098-0.256-0.098-0.354,0c-0.098,0.098-0.098,0.256,0,0.353   l0.038,0.038l-1.22,1.22l-0.968-0.968c-0.098-0.098-0.256-0.098-0.354,0c-0.098,0.098-0.098,0.256,0,0.354l0.968,0.968   l-0.212,0.211c-2.598-0.871-4.038-3.095-4.562-5.795c-0.385-1.983-0.26-4.058-0.14-6.063c0.683-11.355,4.132-13.572,13.159-13.25   l12.904,0.449c4.05,0.141,7.791,0.51,8.367,7.591l-1.299,1.299c-0.014,0.014-0.011,0.034-0.021,0.05   c-0.016,0.01-0.037,0.007-0.052,0.021c-0.098,0.098-0.098,0.256,0,0.354l0.754,0.753l-1.612,1.612   c-0.098,0.098-0.098,0.256,0,0.354c0.097,0.097,0.255,0.098,0.354,0l0.033-0.033c0.012,0.036,0.014,0.075,0.043,0.104l1.432,1.432   c0.097,0.097,0.255,0.098,0.354,0c0.028-0.028,0.03-0.066,0.042-0.101c-0.043,0.933-0.132,1.86-0.28,2.777l-0.276,0.276   c-0.002-0.062-0.023-0.123-0.07-0.17l-1.565-1.565l1.039-1.04c0.098-0.098,0.098-0.256,0-0.354c-0.098-0.098-0.256-0.098-0.354,0   l-1.04,1.04l-0.145-0.145c-0.098-0.098-0.256-0.098-0.354,0c-0.098,0.098-0.098,0.256,0,0.354l0.145,0.145l-1.864,1.864l-0.36-0.36   c-0.098-0.098-0.256-0.098-0.354,0c-0.098,0.098-0.098,0.256,0,0.354l0.451,0.451c0.01,0.043,0.017,0.088,0.05,0.122   c0.034,0.034,0.079,0.04,0.122,0.05l1.096,1.096l-1.578,1.578l-1.113-1.113l0.146-0.146c0.098-0.098,0.098-0.256,0-0.354   c-0.098-0.098-0.256-0.098-0.354,0l-0.146,0.146l-1.683-1.683c-0.098-0.098-0.256-0.098-0.354,0c-0.098,0.098-0.098,0.256,0,0.354   l1.683,1.683l-1.506,1.506l-0.97-0.97l0.169-0.169c0.098-0.098,0.098-0.256,0-0.353c-0.098-0.098-0.256-0.098-0.354,0l-0.169,0.169   l-0.646-0.646c-0.098-0.098-0.256-0.098-0.354,0c-0.098,0.098-0.098,0.256,0,0.354l0.646,0.646l-1.721,1.721l-1.146-1.146   c-0.015-0.015-0.037-0.012-0.054-0.022l0.513-0.513c0.098-0.098,0.098-0.256,0-0.354c-0.098-0.098-0.256-0.098-0.354,0   l-2.536,2.536l-0.717-0.717c-0.015-0.015-0.037-0.012-0.054-0.022l0.581-0.581c0.098-0.098,0.098-0.256,0-0.354   c-0.098-0.098-0.256-0.098-0.354,0l-2.175,2.175l-0.86-0.861c-0.097-0.097-0.255-0.099-0.353,0c-0.098,0.098-0.098,0.256,0,0.354   l0.86,0.861l-0.86,0.86c-0.098,0.098-0.098,0.256,0,0.354c0.097,0.097,0.255,0.098,0.353,0l0.86-0.86l0.932,0.932l0,0l0,0   l0.036,0.036c0.099,0.099,0.257,0.096,0.354,0c0.034-0.034,0.041-0.08,0.051-0.123l1.346-1.346l1.184,1.184l-0.109,0.109   c-0.098,0.098-0.098,0.256,0,0.353c0.097,0.097,0.255,0.098,0.354,0l0.109-0.109l0.727,0.727c0.097,0.097,0.255,0.098,0.354,0   c0.098-0.098,0.098-0.256,0-0.354l-0.727-0.727l1.685-1.685l0.97,0.97l-1.111,1.111c-0.098,0.098-0.098,0.256,0,0.354   c0.097,0.097,0.255,0.098,0.354,0l1.111-1.111l1.112,1.112c0.097,0.097,0.255,0.098,0.354,0c0.035-0.035,0.043-0.082,0.052-0.127   c0.011,0.018,0.008,0.04,0.023,0.055c0.097,0.097,0.255,0.098,0.354,0l1.647-1.647l0.794,0.794c0.097,0.097,0.255,0.098,0.354,0   c0.098-0.098,0.098-0.256,0-0.354l-0.794-0.794l1.506-1.506l2.023,2.023c-0.25,0.239-0.508,0.465-0.782,0.662   c-2.795,2.003-6.667,1.766-9.337,1.41c-1.073-0.141-2.197-0.327-3.404-0.478c-0.165-0.192-0.388-0.238-0.642-0.072   C30.224,28.501,28.447,28.473,26.583,28.917z M40.244,28.429c-0.011-0.018-0.008-0.04-0.023-0.055l-1.112-1.112l1.721-1.721   l1.113,1.113l-1.647,1.647C40.261,28.337,40.254,28.384,40.244,28.429z M38.756,26.909l-0.97-0.97l1.721-1.721l0.97,0.97   L38.756,26.909z M41.184,25.188l1.506-1.506l1.113,1.113l-1.506,1.506L41.184,25.188z M35.911,24.739   c0.01,0.017,0.007,0.039,0.022,0.054l1.146,1.146l-1.685,1.685L34.21,26.44L35.911,24.739z M32.247,27.697l-0.755-0.756   l1.272-1.272c0.01,0.017,0.007,0.039,0.022,0.054l0.717,0.717L32.247,27.697z M11.186,61.545c0.008,0.007,0.019,0.006,0.028,0.012   c-0.01-0.004-0.02-0.006-0.03-0.009L11.186,61.545z M13.399,61.941c-0.671,0.015-1.359-0.108-2.035-0.338   c0.057-0.005,0.115-0.022,0.158-0.066c0.093-0.093,0.091-0.237,0.007-0.336l0.586-0.586l0.732,0.732   c-0.022,0.083-0.016,0.17,0.049,0.235c0.049,0.049,0.112,0.073,0.177,0.073c0.021,0,0.038-0.019,0.059-0.024l0.305,0.305   C13.424,61.938,13.412,61.94,13.399,61.941z M13.68,59.051l0.697,0.698l-1.211,1.211l-0.697-0.697L13.68,59.051z M15.218,60.589   l-0.407,0.407c-0.098,0.098-0.098,0.256,0,0.354c0.049,0.049,0.112,0.073,0.177,0.073c0.064,0,0.128-0.024,0.177-0.073l0.407-0.407   l0.356,0.356c-0.669,0.329-1.374,0.533-2.084,0.607c0.054-0.095,0.056-0.213-0.025-0.294l-0.298-0.298l1.211-1.211L15.218,60.589z    M15.084,59.749l0.721-0.72l0.487,0.487l-0.72,0.721L15.084,59.749z M18.014,59.742c-0.489,0.524-1.04,0.963-1.627,1.31   l-0.462-0.462l0.721-0.721l0.28,0.28c0.049,0.049,0.112,0.073,0.177,0.073c0.064,0,0.128-0.024,0.177-0.073   c0.098-0.098,0.098-0.256,0-0.354l-0.28-0.28l1.118-1.118l0.251,0.251c0.049,0.049,0.112,0.073,0.177,0.073   c0.064,0,0.128-0.024,0.177-0.073c0.098-0.098,0.098-0.256,0-0.354l-1.512-1.512l1.188-1.188l0.465,0.464l-0.734,0.734   c-0.098,0.098-0.098,0.256,0,0.354c0.049,0.049,0.112,0.073,0.177,0.073c0.064,0,0.128-0.024,0.177-0.073l0.734-0.734l0.069,0.069   c0.049,0.049,0.113,0.073,0.177,0.073c0.064,0,0.128-0.024,0.177-0.073c0.098-0.098,0.098-0.256,0-0.354l-0.069-0.069l0.371-0.371   C19.684,57.195,19.047,58.634,18.014,59.742z M19.095,50.417c0.602,1.053,0.916,2.256,0.97,3.477l-1.128-1.128l0.666-0.666   c0.098-0.098,0.098-0.256,0-0.354c-0.098-0.098-0.256-0.098-0.354,0l-0.666,0.666l-0.664-0.664c-0.097-0.097-0.255-0.099-0.354,0   c-0.098,0.098-0.098,0.256,0,0.354l0.664,0.664l-0.944,0.944c-0.098,0.098-0.098,0.256,0,0.353   c0.049,0.049,0.112,0.073,0.177,0.073c0.064,0,0.128-0.024,0.177-0.073l0.944-0.944l1.136,1.137   c0.049,0.049,0.112,0.073,0.177,0.073c0.06,0,0.12-0.026,0.168-0.07c0,0.25-0.01,0.499-0.031,0.747   c-0.068-0.003-0.137,0.016-0.189,0.068l-0.63,0.63l-0.465-0.464l0.688-0.688c0.098-0.098,0.098-0.256,0-0.353   c-0.098-0.098-0.256-0.098-0.354,0l-0.688,0.688l-0.477-0.476c-0.098-0.098-0.256-0.098-0.354,0c-0.098,0.098-0.098,0.256,0,0.354   l0.477,0.476l-1.188,1.188l-0.15-0.15c-0.098-0.098-0.256-0.098-0.354,0c-0.098,0.098-0.098,0.256,0,0.354l0.15,0.15l-0.15,0.15   c-0.098,0.098-0.098,0.256,0,0.354c0.049,0.049,0.112,0.073,0.177,0.073c0.064,0,0.128-0.024,0.177-0.073l0.15-0.15l0.908,0.908   l-1.118,1.118l-0.487-0.487l0.224-0.224c0.098-0.098,0.098-0.256,0-0.354c-0.098-0.098-0.256-0.098-0.354,0l-0.224,0.224   l-0.734-0.734c-0.098-0.098-0.256-0.098-0.354,0c-0.098,0.098-0.098,0.256,0,0.354l0.734,0.734l-0.72,0.72l-0.697-0.698   l0.467-0.467c0.098-0.098,0.098-0.256,0-0.353c-0.098-0.098-0.256-0.098-0.354,0l-2.032,2.032l-0.64-0.64   c-0.098-0.098-0.256-0.098-0.354,0c-0.098,0.098-0.098,0.256,0,0.354l0.64,0.64l-0.58,0.58l-1.014-1.014   c-0.098-0.097-0.256-0.099-0.354,0c-0.098,0.098-0.098,0.256,0,0.354l1.014,1.014l-0.137,0.137   c-3.642-1.672-6.419-7.336-5.959-9.449c0.57-2.618,3.386-4.732,5.778-5.264C13.755,45.904,17.446,47.534,19.095,50.417z    M31.774,61.44l0.807-0.807l0.999,0.999c0.097,0.097,0.255,0.098,0.354,0c0.003-0.003,0.002-0.009,0.005-0.013   c0.001,0.001,0.001,0.003,0.002,0.004c0.097,0.097,0.255,0.098,0.354,0l1.328-1.328l0.353,0.352l-0.56,0.56   c-0.098,0.098-0.098,0.256,0,0.354c0.049,0.049,0.112,0.073,0.177,0.073c0.065,0,0.128-0.024,0.177-0.073l0.56-0.56l0.342,0.343   C35.005,62.131,33.4,62.106,31.774,61.44z M34.311,58.902c0.008,0.05,0.02,0.102,0.058,0.141l0.898,0.898l-1.328,1.328   c-0.003,0.003-0.002,0.009-0.005,0.013c-0.001-0.001-0.001-0.003-0.002-0.004l-0.999-0.999L34.311,58.902z M39.924,50.417   c0.075,0.131,0.123,0.276,0.19,0.411c-0.096-0.058-0.217-0.061-0.3,0.022l-1.244,1.244l-0.407-0.407   c-0.098-0.098-0.256-0.098-0.354,0c-0.098,0.098-0.098,0.256,0,0.354l0.407,0.407l-0.775,0.775c-0.098,0.098-0.098,0.256,0,0.354   c0.008,0.008,0.021,0.006,0.03,0.013c-0.055,0.006-0.111,0.021-0.153,0.064c-0.098,0.098-0.098,0.256,0,0.354l0.898,0.898   l-1.796,1.796l-0.284-0.284c-0.098-0.098-0.256-0.098-0.354,0c-0.098,0.098-0.098,0.256,0,0.353l0.284,0.284l-0.1,0.1   c-0.098,0.098-0.098,0.256,0,0.354c0.097,0.097,0.255,0.098,0.354,0l0.1-0.1l1.844,1.844c0.097,0.097,0.255,0.098,0.354,0   c0.098-0.098,0.098-0.256,0-0.354l-1.844-1.844l1.796-1.796l0.844,0.844l-1.543,1.543c-0.098,0.098-0.098,0.256,0,0.354   c0.097,0.097,0.255,0.098,0.354,0l1.642-1.642c0.039-0.011,0.08-0.015,0.11-0.046c0.03-0.03,0.034-0.072,0.046-0.11l0.21-0.21   c0.098-0.098,0.098-0.256,0-0.354c-0.098-0.098-0.256-0.098-0.354,0l-0.111,0.111l-0.844-0.844l0.41-0.41   c0.098-0.098,0.098-0.256,0-0.354c-0.098-0.098-0.256-0.098-0.354,0l-0.41,0.41l-0.898-0.898c-0.008-0.008-0.021-0.006-0.03-0.013   c0.056-0.006,0.111-0.021,0.153-0.064l0.775-0.775l1.507,1.507c0.097,0.097,0.255,0.098,0.354,0c0.098-0.098,0.098-0.256,0-0.354   l-1.507-1.507l1.244-1.244c0.038-0.038,0.048-0.088,0.057-0.137c1.481,3.334,0.525,7.963-3.093,10.03l-0.45-0.45l1.297-1.297   c0.098-0.098,0.098-0.256,0-0.354c-0.098-0.098-0.256-0.098-0.353,0l-1.297,1.297l-0.353-0.353l0.966-0.966   c0.098-0.098,0.098-0.256,0-0.354c-0.098-0.098-0.256-0.098-0.354,0l-0.966,0.966l-0.898-0.898   c-0.039-0.039-0.09-0.051-0.141-0.058l1.036-1.036c0.098-0.098,0.098-0.256,0-0.354c-0.098-0.098-0.256-0.098-0.354,0l-2.684,2.684   l-0.745-0.745c-0.098-0.098-0.256-0.098-0.354,0c-0.098,0.098-0.098,0.256,0,0.354l0.745,0.745l-0.943,0.943   c-0.994-0.496-1.928-1.236-2.706-2.19c-1.396-1.711-3.45-5.164-3.018-7.149c0.57-2.617,3.386-4.732,5.778-5.264   C34.585,45.904,38.275,47.534,39.924,50.417z M51.608,61.197l0.626-0.626l1.26,1.26C52.856,61.715,52.219,61.509,51.608,61.197z    M59.225,59.742c-1.365,1.466-3.311,2.381-5.309,2.16l0.001,0c0.098-0.098,0.098-0.256,0-0.354l-1.33-1.33l1.489-1.489l0.998,0.998   l-1.113,1.113c-0.098,0.098-0.098,0.256,0,0.354c0.097,0.097,0.255,0.098,0.354,0l1.114-1.113l0.752,0.752l-0.192,0.192   c-0.098,0.098-0.098,0.256,0,0.354c0.097,0.097,0.255,0.098,0.354,0l0.211-0.211c0.097,0.053,0.185,0.078,0.289-0.027   c0.08-0.08,0.077-0.195,0.027-0.289l1.827-1.828c0.004-0.004,0.01-0.002,0.014-0.006c0.004-0.004,0.002-0.01,0.006-0.014   l1.467-1.467c0.098-0.098,0.098-0.256,0-0.354c-0.098-0.098-0.256-0.098-0.354,0l-1.3,1.3l-0.778-0.778   c0.035-0.09,0.035-0.19-0.038-0.262s-0.173-0.073-0.262-0.038l-1.6-1.601c-0.098-0.098-0.256-0.098-0.354,0   c-0.098,0.098-0.098,0.256,0,0.354l1.574,1.574l-1.643,1.642l-0.998-0.998l1.408-1.408c0.098-0.098,0.098-0.256,0-0.354   c-0.098-0.098-0.256-0.098-0.354,0l-1.408,1.408l-0.683-0.683c-0.098-0.098-0.256-0.098-0.354,0c-0.098,0.098-0.098,0.256,0,0.354   l0.683,0.683l-1.489,1.489l-1.113-1.113c-0.232-0.232-0.588,0.119-0.354,0.354l1.113,1.113l-0.72,0.721   c-3.179-1.901-5.646-7.088-5.218-9.054c0.571-2.618,3.387-4.732,5.778-5.264c3.247-0.721,6.936,0.913,8.586,3.797   C61.956,53.303,61.492,57.311,59.225,59.742z M58.176,58.836l-1.642,1.642l-0.752-0.752l1.642-1.642L58.176,58.836z"></path><path d="M31.315,7.095c0.102,0.67,0.288,1.329,0.573,1.941c0.056,0.12,0.201,0.181,0.332,0.121c0.125-0.058,0.18-0.207,0.121-0.332   c-0.246-0.529-0.411-1.094-0.511-1.671c0.973,0.129,1.939,0.315,2.896,0.538l-0.185,1.882c-0.014,0.138,0.087,0.26,0.225,0.273   c0.009,0.001,0.017,0.001,0.024,0.001c0.127,0,0.236-0.097,0.249-0.226l0.178-1.815c0.736,0.179,1.468,0.367,2.19,0.558   c0.132,0.039,0.271-0.043,0.306-0.177c0.036-0.134-0.044-0.27-0.177-0.306c-0.747-0.198-1.506-0.392-2.27-0.577l0.064-0.657   c0.014-0.138-0.087-0.26-0.225-0.273c-0.133-0.017-0.26,0.088-0.273,0.225l-0.058,0.59c-0.995-0.231-2.002-0.419-3.02-0.547   c-0.021-0.222-0.034-0.445-0.032-0.668c0.001-0.138-0.109-0.251-0.248-0.252c-0.001,0-0.001,0-0.002,0   c-0.137,0-0.249,0.11-0.25,0.248c-0.002,0.204,0.013,0.409,0.029,0.613c-0.857-0.087-1.415-0.144-2.504-0.096   c-0.062-0.302-0.111-0.606-0.146-0.912c-0.015-0.137-0.139-0.238-0.275-0.221c-0.138,0.015-0.236,0.139-0.221,0.275   c0.034,0.306,0.085,0.61,0.145,0.911c-0.835,0.066-1.624,0.205-2.37,0.412c-0.199-0.308-0.396-0.618-0.555-0.951   c-0.059-0.124-0.205-0.178-0.333-0.118c-0.125,0.059-0.178,0.208-0.118,0.333c0.144,0.302,0.328,0.58,0.503,0.863   c-1.138,0.374-1.92,0.805-2.663,1.345c-0.194-0.289-0.389-0.577-0.562-0.878c-0.071-0.121-0.226-0.16-0.342-0.092   c-0.119,0.069-0.16,0.222-0.092,0.342c0.184,0.32,0.391,0.627,0.598,0.934c-0.806,0.656-1.498,1.444-2.056,2.32   c-0.327-0.315-0.777-0.858-1.211-0.86h-0.001c-0.138,0-0.249,0.111-0.25,0.249c-0.001,0.138,0.11,0.25,0.249,0.251   c0.178,0.002,0.806,0.663,0.946,0.798c-0.494,0.871-0.858,1.814-1.073,2.792c-0.292-0.211-0.584-0.424-0.869-0.645   c-0.109-0.084-0.267-0.065-0.351,0.044c-0.085,0.109-0.066,0.267,0.044,0.351c0.351,0.273,0.709,0.538,1.07,0.795   c-0.162,1.009-0.166,2.043,0.013,3.06c0.024,0.139,0.157,0.228,0.29,0.203c0.136-0.023,0.227-0.153,0.202-0.29   c-0.156-0.883-0.162-1.78-0.044-2.659c0.208,0.142,0.415,0.289,0.624,0.425c0.113,0.074,0.269,0.044,0.346-0.074   c0.075-0.115,0.042-0.27-0.074-0.346c-0.27-0.175-0.538-0.362-0.805-0.548c0.188-0.961,0.526-1.89,0.998-2.748l0.446,0.43   c0.101,0.097,0.259,0.092,0.353-0.006c0.096-0.1,0.093-0.258-0.006-0.353l-0.534-0.514c0.531-0.853,1.195-1.62,1.973-2.258   c0.254,0.351,0.517,0.695,0.798,1.023c0.087,0.102,0.245,0.119,0.353,0.026c0.104-0.09,0.116-0.247,0.026-0.353   c-0.276-0.321-0.534-0.659-0.783-1.004c0.758-0.553,1.501-0.949,2.644-1.311c0.289,0.412,0.613,0.799,0.97,1.16   c0.096,0.098,0.254,0.1,0.354,0.002c0.099-0.098,0.099-0.256,0.002-0.353c-0.29-0.293-0.546-0.614-0.789-0.944   c0.692-0.181,1.42-0.306,2.193-0.363c0.198,0.796,0.486,1.734,1.301,1.51c0.133-0.037,0.211-0.175,0.174-0.309   c-0.037-0.133-0.175-0.205-0.309-0.174c-0.391,0.122-0.56-0.678-0.661-1.071C30.024,6.944,30.507,7.008,31.315,7.095z"></path><path d="M60.114,52.722l-0.663,0.663l-0.66-0.66l1.268-1.269c0.098-0.098,0.098-0.256,0-0.354c-0.098-0.098-0.256-0.098-0.354,0   l-1.268,1.269l-0.069-0.069c-0.098-0.098-0.256-0.098-0.354,0c-0.098,0.098-0.098,0.256,0,0.354l0.069,0.069l-0.314,0.314   c-0.098,0.098-0.098,0.256,0,0.354c0.097,0.097,0.255,0.098,0.353,0l0.315-0.314l0.66,0.66l-0.906,0.906l-0.376-0.376   c-0.098-0.098-0.256-0.098-0.354,0c-0.098,0.098-0.098,0.256,0,0.354l0.376,0.376l-0.683,0.683c-0.098,0.098-0.098,0.256,0,0.354   c0.097,0.097,0.255,0.098,0.354,0l0.683-0.683l0.66,0.66l-0.407,0.407c-0.098,0.098-0.098,0.256,0,0.353   c0.097,0.097,0.255,0.098,0.354,0l0.407-0.407l0.342,0.342c0.097,0.097,0.255,0.098,0.354,0c0.098-0.098,0.098-0.256,0-0.354   l-0.342-0.342l1.022-1.022c0.098-0.098,0.098-0.256,0-0.354c-0.053-0.053-0.122-0.071-0.191-0.067   c0.043-0.092,0.044-0.2-0.032-0.276l-0.553-0.553l0.663-0.663c0.098-0.098,0.098-0.256,0-0.354   C60.37,52.624,60.211,52.624,60.114,52.722z M60.004,54.645c0.042,0.042,0.096,0.056,0.151,0.062l-0.95,0.95l-0.66-0.66   l0.906-0.906L60.004,54.645z"></path></g></svg>
