<svg height='100px' width='100px'  fill="#FFFFFF" xmlns="http://www.w3.org/2000/svg" xmlns:xlink="http://www.w3.org/1999/xlink" xml:space="preserve" version="1.1" style="shape-rendering:geometricPrecision;text-rendering:geometricPrecision;image-rendering:optimizeQuality;" viewBox="0 0 84090 105380" x="0px" y="0px" fill-rule="evenodd" clip-rule="evenodd"><defs><style type="text/css">

    .fil0 {fill:#FFFFFF;fill-rule:nonzero}

  </style></defs><g><path class="fil0" d="M15930 35650c0,880 -700,1580 -1570,1580l-3200 0 -7260 18140 6200 0c870,0 1570,710 1570,1580l0 12780c0,1900 770,3630 2000,4880 1220,1230 2880,2010 4730,2060 5630,-200 11550,0 17250,0 870,0 1580,710 1580,1580l0 6940 35190 0 -30 -23130c-6330,5740 -14730,9250 -23960,9250 -870,0 -1580,-710 -1580,-1580 0,-870 710,-1580 1580,-1580 8980,0 17100,-3640 22980,-9520 1470,-1460 2800,-3070 3970,-4800l370 -560c290,-450 560,-900 820,-1350 2580,-4460 4090,-9530 4330,-14820 20,-480 30,-960 30,-1450 0,-8970 -3640,-17100 -9520,-22980 -5880,-5880 -14000,-9510 -22980,-9510 -8970,0 -17100,3630 -22980,9510 -5880,5880 -9520,14010 -9520,22980zm-3120 -1570c400,-9220 4310,-17530 10410,-23640 6450,-6450 15370,-10440 25210,-10440 9850,0 18760,3990 25210,10440 6460,6450 10450,15370 10450,25210 -10,420 -10,840 -30,1250 -280,8360 -3450,15980 -8530,21920l30 27810 10 140 0 17040c0,870 -710,1570 -1580,1570l-42600 0c-870,0 -1570,-700 -1570,-1570l0 -17040c0,-870 700,-1580 1570,-1580l2690 0 0 -5360 -15570 0 -180 -10c-2700,-80 -5130,-1210 -6900,-3000 -1800,-1830 -2910,-4330 -2910,-7090l0 -11200 -6940 0c-870,0 -1580,-710 -1580,-1580 0,-250 60,-480 160,-690l8480 -21190c240,-620 830,-990 1460,-990l0 0 2710 0zm59600 54270l-9620 0 0 13880 9620 0 0 -13880zm-12780 0l-9620 0 0 13880 9620 0 0 -13880zm-12780 0l-13880 0 0 13880 13880 0 0 -13880zm21300 -48440l0 -2680 -11200 0c-1920,0 -3650,780 -4910,2030 -1250,1260 -2030,3000 -2030,4910 0,870 -710,1580 -1580,1580 -870,0 -1580,-710 -1580,-1580 0,-2780 1140,-5310 2960,-7140 1830,-1820 4350,-2950 7140,-2950l12780 0c870,0 1580,700 1580,1570l0 4260c0,3970 -1610,7560 -4210,10150 -2600,2600 -6180,4210 -10150,4210 -870,0 -1580,-710 -1580,-1580 0,-870 710,-1580 1580,-1580 3090,0 5900,-1250 7920,-3280 2030,-2020 3280,-4820 3280,-7920z"></path></g></svg>
